# Blender v2.80 (sub 75) OBJ File: 'Wall.blend'
# www.blender.org
mtllib Wall.mtl
o Cube
v 0.600000 2.000000 -3.000000
v 0.600000 -0.753950 -3.000000
v 0.600000 2.000000 3.289338
v 0.600000 -0.753950 3.289338
v -0.600000 2.000000 -3.000000
v -0.600000 -0.753950 -3.000000
v -0.600000 2.000000 3.289338
v -0.600000 -0.753950 3.289338
v 1.389926 2.817531 -2.329680
v 1.389926 2.817531 3.000000
v 0.600000 2.817531 3.278646
v 1.389926 2.817531 3.278646
v -0.600000 2.800241 3.278646
v -1.314478 2.800241 3.278646
v -0.600000 2.000000 -3.000000
v -0.590505 1.998536 3.281569
v -1.314478 2.800241 3.000000
v -1.314478 2.817531 -3.000000
v 1.389926 2.817531 -2.998514
v -1.314478 2.817531 -2.998514
v 0.600000 2.000000 -3.000000
v -0.600000 2.000000 -3.000000
v 0.600000 2.817531 -2.998514
v -0.600000 2.817531 -2.998514
v 1.389926 3.371792 -2.329680
v 1.389926 3.371792 3.000000
v 0.600000 3.371792 3.278646
v 1.389926 3.371792 3.278646
v -0.600000 3.371792 3.278646
v -1.314478 3.371792 3.278646
v -1.314478 3.371792 3.000000
v -1.314478 3.371792 -2.329680
v 1.389926 3.371792 -2.998514
v -1.314478 3.371792 -2.998514
v 0.600000 3.371792 -2.998514
v -0.600000 3.371792 -2.998514
v 1.030605 3.371792 -2.521771
v -0.889798 3.371792 -2.521770
v 0.600000 3.000000 -2.329680
v -0.600000 3.000000 -2.329680
v -0.889798 3.371792 2.801903
v 1.030605 3.371792 2.801903
v -0.600000 3.000000 2.582288
v 0.600000 3.000000 2.582288
vt 0.375000 0.000000
vt 0.625000 0.000000
vt 0.625000 0.250000
vt 0.375000 0.250000
vt 0.375000 0.250000
vt 0.625000 0.250000
vt 0.625000 0.500000
vt 0.375000 0.500000
vt 0.625000 0.750000
vt 0.375000 0.750000
vt 0.625000 0.750000
vt 0.625000 1.000000
vt 0.375000 1.000000
vt 0.125000 0.500000
vt 0.375000 0.500000
vt 0.375000 0.750000
vt 0.125000 0.750000
vt 0.625000 0.500000
vt 0.875000 0.500000
vt 0.875000 0.750000
vt 0.375000 0.000000
vt 0.375000 0.250000
vt 0.375000 0.250000
vt 0.375000 0.250000
vt 0.000000 0.000000
vt 0.000000 0.000000
vt 0.000000 0.000000
vt 0.000000 0.000000
vt 0.000000 0.000000
vt 0.000000 0.000000
vt 0.000000 0.000000
vt 0.625000 0.250000
vt 0.625000 0.000000
vt 0.000000 0.000000
vt 0.000000 0.000000
vt 0.000000 0.000000
vt 0.000000 0.000000
vt 0.375000 0.000000
vt 0.375000 0.000000
vt 0.375000 0.000000
vt 0.000000 0.000000
vt 0.375000 0.000000
vt 0.375000 0.000000
vt 0.000000 0.000000
vt 0.000000 0.000000
vt 0.000000 0.000000
vt 0.000000 0.000000
vt 0.000000 0.000000
vt 0.375000 0.000000
vt 0.375000 0.250000
vt 0.375000 0.250000
vt 0.375000 0.250000
vt 0.000000 0.000000
vt 0.000000 0.000000
vt 0.000000 0.000000
vt 0.000000 0.000000
vt 0.000000 0.000000
vt 0.000000 0.000000
vt 0.000000 0.000000
vt 0.000000 0.000000
vt 0.000000 0.000000
vt 0.000000 0.000000
vn 0.0000 1.0000 0.0000
vn 0.0000 0.0000 1.0000
vn -1.0000 0.0000 0.0000
vn 0.0000 -1.0000 0.0000
vn 1.0000 0.0000 0.0000
vn 0.0000 0.0000 -1.0000
vn 0.7191 -0.6949 0.0000
vn 0.3178 -0.2953 0.9010
vn -0.0001 0.0132 0.9999
vn -0.3456 -0.3088 0.8861
vn 0.1524 0.9883 0.0000
vn -0.7476 -0.6642 -0.0004
vn 0.0021 0.0036 -1.0000
vn 0.5485 -0.5288 -0.6478
vn 0.0000 0.0018 -1.0000
vn 0.0000 0.4590 0.8884
vn 0.0000 0.5086 -0.8610
vn -0.6535 0.7569 0.0000
vn 0.7887 0.6148 0.0000
vn -0.6342 -0.0103 -0.7731
usemtl Material
s off
f 1/1/1 5/2/1 7/3/1 3/4/1
f 4/5/2 3/6/2 7/7/2 8/8/2
f 8/8/3 7/7/3 5/9/3 6/10/3
f 6/10/4 2/11/4 4/12/4 8/13/4
f 2/14/5 1/15/5 3/16/5 4/17/5
f 6/18/6 5/19/6 1/20/6 2/11/6
f 3/4/7 1/1/7 9/21/7 10/22/7
f 3/4/8 10/22/8 12/23/8 11/24/8
f 3/25/9 11/26/9 13/27/9 7/28/9
f 13/27/10 14/29/10 17/30/10 16/31/10
f 5/2/11 7/3/11 16/32/11 15/33/11
f 15/34/12 16/31/12 17/30/12 18/35/12
f 18/35/13 20/36/13 24/37/13 15/34/13
f 19/38/14 9/21/14 21/39/14 23/40/14
f 21/39/15 22/41/15 24/37/15 23/40/15
f 9/21/5 19/38/5 33/42/5 25/43/5
f 18/35/3 17/30/3 31/44/3 32/45/3
f 14/29/2 13/27/2 29/46/2 30/47/2
f 23/40/6 24/37/6 36/48/6 35/49/6
f 11/24/2 12/23/2 28/50/2 27/51/2
f 10/22/5 9/21/5 25/43/5 26/52/5
f 13/27/2 11/26/2 27/53/2 29/46/2
f 20/36/3 18/35/3 32/45/3 34/54/3
f 12/23/5 10/22/5 26/52/5 28/50/5
f 17/30/3 14/29/3 30/47/3 31/44/3
f 24/37/6 20/36/6 34/54/6 36/48/6
f 19/38/6 23/40/6 35/49/6 33/42/6
f 25/43/1 33/42/1 35/49/1 37/55/1
f 36/48/1 38/56/1 37/55/1 35/49/1
f 32/45/1 38/56/1 36/48/1 34/54/1
f 38/56/16 40/57/16 39/58/16 37/55/16
f 41/59/1 31/44/1 30/47/1 29/46/1
f 27/51/1 28/50/1 26/52/1 42/60/1
f 27/51/1 42/60/1 41/59/1 29/46/1
f 42/60/17 44/61/17 43/62/17 41/59/17
f 31/44/1 41/59/1 38/56/1 32/45/1
f 26/52/1 25/43/1 37/55/1 42/60/1
f 39/58/18 44/61/18 42/60/18 37/55/18
f 40/57/19 38/56/19 41/59/19 43/62/19
f 39/58/1 40/57/1 43/62/1 44/61/1
f 7/3/20 13/27/20 16/32/20
l 22 15
l 1 21
